<svg xmlns="http://www.w3.org/2000/svg" xmlns:xlink="http://www.w3.org/1999/xlink" id="Layer_2" data-name="Layer 2" viewBox="0 0 399.65 98.98"><defs><clipPath id="clippath"><rect width="399.65" height="98.98" fill="none"></rect></clipPath><clipPath id="clippath-1"><rect width="399.65" height="98.98" fill="none"></rect></clipPath><clipPath id="clippath-2"><rect x="12.32" y="14.18" width="73.31" height="70.96" fill="none"></rect></clipPath><clipPath id="clippath-3"><rect width="399.65" height="98.98" fill="none"></rect></clipPath></defs><g id="Layer_1-2" data-name="Layer 1"><g><g clip-path="url(#clippath)"><path d="M383.42,98.64h15.47v-1.34h-13.87v-7.85h12.33v-1.34h-12.33v-7.69h13.71v-1.34h-15.31v19.56ZM331.15,98.64h1.54v-17.38l15.16,17.38h1.2v-19.56h-1.54v17.02l-14.85-17.02h-1.51v19.56ZM288.29,98.95c5.23,0,8.82-2.99,8.82-8.61v-11.26h-1.6v11.43c0,4.72-2.8,7.13-7.16,7.13s-7.29-2.65-7.29-7.27v-11.29h-1.6v11.43c0,5.48,3.66,8.44,8.82,8.44M239.41,98.92c1.72,0,3.26-.53,4.4-1.57,1.2-1.09,1.97-2.82,1.97-5.09v-13.19h-1.6v13.3c0,3.41-2.03,5.23-4.67,5.23s-3.97-1.06-5.29-3.1l-1.32.76c1.32,2.15,3.32,3.66,6.52,3.66M194.76,98.98c4.33,0,7.5-2.6,7.5-6.29s-3.23-5.95-7.38-5.95c-2,0-3.38.45-4.76,1.06l.52-7.32h10.67v-1.4h-12.08l-.61,9.47,1.23.73c1.35-.67,2.86-1.23,4.86-1.23,3.47,0,5.9,1.93,5.9,4.64s-2.37,4.98-5.78,4.98c-2.28,0-4.52-1.12-6.46-2.88l-1.14,1.03c1.88,1.73,4.61,3.16,7.53,3.16M147.72,91.12h8.24v-1.57h-8.24v1.57ZM113.41,98.64h1.57v-19.7h-1.23l-4.92,1.65.43,1.15,4.15-1.29v18.19Z" fill="#231f20"></path><path d="M386.72,68.88h12.93v-1.34h-11.6v-7.85h10.31v-1.34h-10.31v-7.69h11.47v-1.34h-12.81v19.57ZM364.86,68.88h1.29v-17.38l12.68,17.38h1v-19.57h-1.29v17.02l-12.42-17.02h-1.26v19.57ZM356.45,68.88h1.34v-19.57h-1.34v19.57ZM338.81,68.88h11.91v-1.34h-10.57v-18.22h-1.34v19.57ZM316.95,68.88h1.29v-17.38l12.68,17.38h1v-19.57h-1.29v17.02l-12.42-17.02h-1.26v19.57ZM301.83,67.9c-4.45,0-7.69-3.97-7.69-8.8s3.19-8.8,7.64-8.8,7.69,3.97,7.69,8.8-3.19,8.8-7.64,8.8M301.78,69.22c5.45,0,9.08-4.78,9.08-10.12s-3.57-10.12-9.03-10.12-9.08,4.78-9.08,10.12,3.58,10.12,9.03,10.12M271.51,57.45c-1.59-1.85-2.08-2.79-2.08-4.02,0-1.82,1.29-3.21,3.11-3.21,1.62,0,2.85,1.34,2.85,3.07,0,1.9-1.31,3.27-3.88,4.16M270.99,67.9c-2.47,0-4.22-1.84-4.22-4.22,0-1.96,1.26-3.77,4.11-4.84l5.32,5.98c-1.49,1.9-3.21,3.07-5.22,3.07M280.17,69.27l1.05-.95-3.32-3.72c.98-1.42,1.85-3.19,2.67-5.2l-1.21-.53c-.69,1.79-1.47,3.41-2.34,4.75l-4.73-5.28c2.75-1.04,4.42-2.63,4.42-5.06s-1.8-4.3-4.14-4.3c-2.62,0-4.5,1.93-4.5,4.44,0,1.68.64,2.88,2.01,4.53-2.93,1.17-4.65,3.1-4.65,5.73,0,3.24,2.36,5.48,5.53,5.48,2.42,0,4.4-1.23,6.09-3.38l3.11,3.49Z" fill="#f8971d"></path><path d="M240.44,62.09l4.76-11.32,4.73,11.32h-9.49ZM236.2,68.88h1.39l2.29-5.48h10.62l2.29,5.48h1.47l-8.38-19.7h-1.29l-8.38,19.7ZM215.88,68.88h1.29v-17.38l12.68,17.38h1v-19.56h-1.29v17.02l-12.42-17.02h-1.26v19.56ZM202.43,69.22c2.93,0,5.45-1.37,7.07-2.94v-7.55h-7.3v1.34h6.02v5.62c-1.31,1.2-3.44,2.24-5.73,2.24-4.81,0-7.71-3.77-7.71-8.83,0-4.78,3.06-8.8,7.43-8.8,2.73,0,4.37,1.01,5.79,2.35l.87-1.09c-1.8-1.62-3.65-2.57-6.58-2.57-5.37,0-8.9,4.84-8.9,10.12,0,5.56,3.37,10.12,9.05,10.12M179.06,67.9c-4.45,0-7.69-3.97-7.69-8.8s3.19-8.8,7.64-8.8,7.69,3.97,7.69,8.8-3.19,8.8-7.64,8.8M179.01,69.22c5.45,0,9.08-4.78,9.08-10.12s-3.57-10.12-9.03-10.12-9.08,4.78-9.08,10.12,3.57,10.12,9.03,10.12M154.35,68.88h11.91v-1.34h-10.57v-18.22h-1.34v19.56ZM139.23,67.9c-4.45,0-7.69-3.97-7.69-8.8s3.19-8.8,7.64-8.8,7.69,3.97,7.69,8.8-3.19,8.8-7.64,8.8M139.18,69.22c5.45,0,9.08-4.78,9.08-10.12s-3.57-10.12-9.03-10.12-9.08,4.78-9.08,10.12,3.57,10.12,9.02,10.12M112.18,58.34v-7.69h6.07c2.88,0,4.5,1.45,4.5,3.61,0,2.65-1.93,4.08-4.63,4.08h-5.94ZM112.18,67.54v-7.85h6.1c3.55,0,5.48,1.4,5.48,3.8s-1.96,4.05-5.04,4.05h-6.53ZM110.84,68.88h7.82c3.88,0,6.45-2.07,6.45-5.34,0-2.77-1.9-4.11-4.06-4.72,1.47-.64,3.06-1.98,3.06-4.64,0-2.96-2.32-4.86-5.84-4.86h-7.43v19.56Z" fill="#007dc5"></path><path d="M260.18,19.73v-.11c0-10.8-8.33-19.07-20.39-19.07h-14.96v38.36h14.96c12.05,0,20.39-8.38,20.39-19.18" fill="#ffcf01"></path><path d="M173.8,27.56v-.11c0-6.68-4.38-9.48-12.17-11.51-6.63-1.7-8.28-2.52-8.28-5.04v-.11c0-1.86,1.7-3.34,4.93-3.34s6.58,1.43,9.97,3.78l4.38-6.36C168.76,1.75,163.99,0,158.4,0c-7.84,0-13.43,4.6-13.43,11.56v.11c0,7.62,4.99,9.75,12.71,11.73,6.41,1.64,7.73,2.74,7.73,4.88v.11c0,2.25-2.08,3.62-5.54,3.62-4.38,0-8-1.81-11.45-4.66l-4.99,5.97c4.6,4.11,10.47,6.14,16.28,6.14,8.27,0,14.08-4.28,14.08-11.89" fill="#007dc5"></path></g><polygon points="110.39 .55 110.39 38.91 139.6 38.91 139.6 31.4 118.77 31.4 118.77 23.35 136.86 23.35 136.86 15.84 118.77 15.84 118.77 8.06 139.32 8.06 139.32 .55 110.39 .55" fill="#007dc5"></polygon><rect x="210.63" y=".55" width="8.44" height="38.36" fill="#007dc5"></rect><g clip-path="url(#clippath-1)"><path d="M207.39,13.92v-.11c0-7.84-5.53-13.26-14.69-13.26h-15.67v38.36h8.44v-11.51h6.41c8.6,0,15.51-4.6,15.51-13.48" fill="#f15b56"></path><path d="M337.88,39.27h28.46v-7.31h-16.76l6.26-4.84c6.81-5.27,10.11-8.46,10.11-14.89v-.11c0-7.2-5.28-11.87-13.24-11.87-6.87,0-10.55,2.8-14.34,7.97l5.93,4.78c2.86-3.52,4.89-5.16,7.86-5.16s5.16,1.76,5.16,5-1.87,5.27-6.65,9.23l-12.8,10.49v6.7Z" fill="#007dc5"></path><path d="M337.75,20.04v-.11c0-10.93-8.52-19.78-20.38-19.78s-20.49,8.96-20.49,19.89v.11c0,10.93,8.52,19.78,20.38,19.78s20.49-8.96,20.49-19.89" fill="#00b26b"></path><path d="M268.47,39.27h28.46v-7.31h-16.76l6.26-4.84c6.81-5.27,10.11-8.46,10.11-14.89v-.11c0-7.2-5.27-11.87-13.24-11.87-6.87,0-10.55,2.8-14.34,7.97l5.93,4.78c2.86-3.52,4.89-5.16,7.86-5.16s5.16,1.76,5.16,5-1.87,5.27-6.65,9.23l-12.8,10.49v6.7Z" fill="#007dc5"></path></g><rect y=".68" width="97.96" height="97.96" fill="#078141"></rect><g clip-path="url(#clippath-2)"><path d="M61.45,55.62l-4.69.03v11.57h4.69v-11.6ZM27.67,67.39h7.97v-3.29h-3.45v-1.2h2.57v-2.58h-2.65v-1.14h3.47l.04-3.45h-7.95v11.66ZM45.47,63.48c-.05-4.55-4.97-2.55-4.97-4.23s4.17.4,4.17.4v-3.21s-.8-.96-3.29-.96-5.4,1.18-5.4,3.85c0,5,4.6,2.51,4.6,4.36s-4.12-.88-4.12-.88v3.53s1.15,1.2,3.71,1.2,5.33-1.39,5.29-4.06M52.25,59.65c-.04.74-.5.96-.92,1.02-.42.1-.85.02-.85.02v-2s.09,0,.18-.02v-.06s1.66-.33,1.59,1.04M53.29,55.68c-.85-.13-7.58-.2-7.58-.2v11.76h4.95v-3.66s3.02.2,3.55-.26c.52-.46,2.08-.42,2.08-3.61s-2.15-3.91-2.99-4.04M61.36,47.59c0-1.33-1.08-2.42-2.42-2.42s-2.42,1.08-2.42,2.42,1.08,2.42,2.42,2.42,2.42-1.08,2.42-2.42M61.51,52.76l5.42-5.28-3.51-.07-3.87,3.09h-.88s-4.28-3-4.28-3l-3.25.03,5.56,5.29.03,2.17h4.78v-2.22ZM68.9,61.09c0,1.53-.64,2.07-1.23,2.27-.59.26-1.19.12-1.19.12v-4.6s.12-.01.2-.02h0s2.22-.56,2.22,2.23M73.13,61.45c0-4.28-2.18-5.79-3.32-5.79-3.77,0-7.49-.02-7.49-.02v11.51s4.28.08,5.56-.08c1.29-.16,5.24-1.34,5.24-5.62" fill="#fff"></path><path d="M49.23,14.78c-17.29,0-31.35,14.06-31.35,31.35s14.06,31.35,31.35,31.35,31.35-14.07,31.35-31.35-14.06-31.35-31.35-31.35M49.23,78.09c-17.62,0-31.96-14.33-31.96-31.95s14.33-31.95,31.96-31.95,31.96,14.33,31.96,31.95-14.34,31.95-31.96,31.95" fill="#fff"></path><path d="M34.75,20.58c-.16,0-.32.07-.52.35-.1.14-.13.27-.09.41.07.23.4.69,1.87,1.24.1.04.18.04.25.02.13-.06.22-.3.31-.55.07-.18.13-.36.23-.54.24-.42.7-.44,1.19-.46.2-.01.42-.02.64-.05-.04-.13-.06-.29-.06-.48,0-.67-1.81-1.46-2.37-1.46-.12,0-.15.04-.17.44,0,.31-.02.69-.29.96-.27.27-.53.2-.74.15-.09-.02-.17-.04-.25-.04M33.06,24.85l-.02.05s-.02.04-.01.06c.03.07.29.15.47.21.32.1.68.21.89.46.16.19.24.48.34.82.18.61.37,1.3,1.05,1.56.46.17.9.16,1.29-.04.6-.31,1.07-1.04,1.36-2.12.41-1.51,1.13-2.7,1.62-3.49.19-.31.34-.55.4-.71.11-.27.4-.31.69-.35.54-.07,1.09-.15.99-1.54-.04-.51.06-.87.27-1.1-1.36-.33-1.95.67-2.46,1.55-.29.5-.55.93-.91,1.04.09.27.13.53-.17,1.09-.4.74-.98.86-1.4.95-.12.03-.23.05-.31.08-.13.05-.15.13-.2.25-.05.15-.13.37-.45.48-.3.1-.57-.08-.76-.22-.08-.06-.21-.14-.25-.13,0,0-.02.01-.04.04-.15.26-.07,1.26.02,1.84l.05.28-.26-.13c-.4-.2-1.51-.73-1.89-.79-.14-.02-.24-.07-.3-.13M36.39,28.41c-.24,0-.48-.05-.73-.14-.81-.31-1.04-1.11-1.23-1.75-.08-.29-.16-.57-.28-.71-.15-.18-.47-.28-.75-.36-.31-.09-.57-.17-.66-.37-.04-.09-.03-.2.02-.31l.05-.1c.07-.15.11-.22.21-.22.09,0,.14.07.16.1.02.04.06.11.22.13.38.06,1.28.48,1.72.7-.06-.48-.15-1.42.06-1.76.06-.1.14-.16.23-.18.17-.04.32.07.48.18.17.12.34.23.5.18.19-.06.22-.15.27-.3.05-.14.12-.33.37-.43.11-.04.23-.07.36-.1.4-.09.86-.18,1.2-.8.25-.46.22-.65.13-.88-.26.04-.5.05-.72.07-.51.02-.8.05-.95.32-.09.15-.15.32-.21.49-.11.31-.22.6-.46.71-.13.06-.29.06-.47,0-1.21-.46-1.9-.94-2.05-1.44-.07-.23-.02-.45.13-.67.42-.58.8-.49,1.08-.43.21.05.33.07.47-.07.19-.19.2-.49.21-.76.01-.32.02-.73.46-.73.62,0,2.67.83,2.67,1.76,0,.17.02.31.06.42.26-.07.5-.48.75-.91.52-.89,1.24-2.12,2.87-1.67.07.02.12.03.16.04.09.02.18.05.19.16v.11s-.12.05-.12.05c-.28.11-.4.44-.36.98.12,1.67-.7,1.78-1.24,1.85-.25.03-.41.06-.46.17-.08.18-.23.43-.43.76-.47.78-1.19,1.95-1.58,3.42-.31,1.16-.83,1.96-1.51,2.3-.25.13-.52.19-.8.19M49.27,29.56c-.04.13-.07.27-.1.41l-.05.23c-.02.1-.04.22,0,.29.08.1.37.1.64.1h.17c.09,0,.1-.03.1-.05.07-.19-.23-.75-.51-.98-.05-.04-.14-.03-.25,0M46.74,32.25c.26,0,.53.05.78.22.28.19.44.39.58.56.22.28.36.46.95.46.54,0,.78-.55,1.02-1.07.17-.38.33-.73.61-.85.11-.05.16-.09.18-.1,0-.02.01-.04.02-.06l.06-.09.21.05v.11s.01.02.01.04c.02.04.05.12.17.26.4.46.52.44.86.37h.07c.22-.06.27-.23.37-.63.02-.1.05-.21.08-.33.07-.24.14-.43.2-.59l-.17.17c-.13-.13-.46-.38-.64-.3-.24.12-.7.71-.86.92l-.24-.17c.06-.08.62-.84.96-1.01.38-.19.85.23.96.33.03-.08.07-.15.1-.23.05-.11.1-.23.16-.35.06-.15.17-.25.32-.31.31-.12.79-.03,1.33.23.23.12.4.26.55.38.28.24.42.36.77.18.13-.06.12-.13.12-.16-.02-.28-.64-.75-.99-.86-.28-.09-.93-.13-1.45-.16-.36-.02-.67-.04-.86-.07-.15-.02-.22-.1-.26-.16-.12-.21-.01-.52.14-.95.09-.26.19-.56.25-.86.12-.68.85-1.35,1.49-1.95.24-.23.48-.44.64-.62.39-.45.81-.3,1.14-.19.22.08.42.15.6.07.44-.19.97-.6,1.01-.85,0-.04,0-.07-.05-.11-.34-.27-1.02-.37-1.54-.37-.16,0-.43.26-.66.5-.35.35-.71.71-1.11.71-.64,0-2.04,1.27-2.64,1.82-.41.37-.33.63-.23.93.09.27.19.6-.17.92-.4.35-.76.39-1.08.42-.23.02-.44.05-.65.18-.23.14-.37.33-.47.56.12-.01.23.02.32.09.33.27.74.95.61,1.31-.03.09-.12.24-.38.24h-.17c-.36,0-.7.01-.88-.21-.1-.13-.12-.31-.06-.54l.05-.22c.01-.06.03-.12.04-.18-.15.08-.3.18-.43.27-.35.23-.69.44-.95.48-.24.03-.45-.02-.75-.09-.44-.11-1.1-.27-2.35-.23-.06.11-.1.23-.07.33.04.12.22.2.39.27.14.06.27.11.37.21.2.2.24.42.29.64.04.19.07.38.21.59.1.15.3.14.65.1.14-.02.29-.04.45-.04M49.05,33.78c-.74,0-.95-.28-1.19-.57-.13-.16-.26-.33-.51-.5-.33-.22-.69-.17-1.04-.13-.36.04-.73.08-.93-.23-.17-.26-.22-.49-.26-.7-.04-.2-.07-.35-.2-.49-.05-.05-.17-.1-.27-.14-.22-.09-.47-.2-.55-.45-.06-.18-.01-.39.14-.64l.04-.07h.08c1.34-.05,2.05.12,2.51.23.27.07.45.11.64.09.2-.03.52-.24.83-.43.24-.16.48-.31.7-.41.12-.36.3-.68.67-.91.27-.17.53-.2.78-.22.3-.03.59-.06.92-.35.21-.19.18-.33.09-.61-.1-.31-.24-.74.31-1.24,1.08-.98,2.17-1.89,2.84-1.89.28,0,.61-.33.9-.63.31-.31.58-.58.87-.58.36,0,1.23.04,1.73.44.12.1.18.23.16.38-.06.42-.73.88-1.18,1.08-.29.12-.57.02-.81-.06-.36-.12-.57-.18-.82.1-.17.19-.4.41-.66.65-.58.54-1.3,1.2-1.4,1.78-.06.32-.17.63-.26.9-.09.27-.21.61-.16.7,0,.01.03.02.06.03.18.03.5.05.83.07.57.03,1.21.07,1.52.18.4.13,1.16.66,1.19,1.12,0,.11-.02.31-.29.44-.52.26-.79.02-1.09-.22-.14-.11-.29-.24-.49-.34-.45-.22-.87-.31-1.09-.22-.08.03-.12.07-.16.14-.05.14-.11.25-.16.37-.11.24-.21.46-.32.83-.03.11-.06.22-.08.32-.1.4-.18.75-.6.83h-.07c-.42.1-.65.12-1.15-.45-.06-.07-.11-.14-.15-.2-.04.03-.1.05-.16.08-.17.07-.31.38-.46.7-.25.55-.57,1.24-1.29,1.24M29.07,42.49s-.42-.42-.59-.76c-.06-.12-.76-.21-1.47-.19v-.29c.46-.02,1.55-.02,1.74.35.15.3.53.68.54.68l-.21.21ZM44.67,28.72c.02.1.12.41.35.56.12.07.25.09.4.06l.21-.33c.26-.4.5-.78.77-1.24v-.53c-.76.34-1.53.71-1.74,1.49M31.62,44.68c-.21.26-.3.49-.26.69.05.23.27.46.72.71l.35-.8c.79-1.78,1.27-2.87,1.68-3.41l-.71.23c-.11.26-.17.51-.23.74-.16.66-.31,1.29-1.56,1.83M33.22,49.47c-.12.71.47,1.94,1.35,2.43.24-.2.49-.47.71-.76-.42-.19-.8-.61-1.14-.97-.35-.38-.7-.74-.92-.7M41.56,55.59l-1.62-.93v-.08c-.05-.61-.31-.98-.59-1.36-.3-.42-.61-.85-.61-1.59,0-.64.27-1.21.52-1.75.31-.66.61-1.29.36-1.97-.65-1.78-1.08-3.48-1.39-4.71-.2-.77-.4-1.57-.54-1.87-.04.08-.09.17-.13.25-.2.37-.38.7-.38,1.15,0,2.2.46,4.94.84,5.65.71,1.33-.1,1.78-1.05,2.3-.22.12-.45.25-.69.4-.24.15-.48.19-.7.15-.28.4-.61.75-.9.97l-.07.06-.08-.04c-1.1-.55-1.78-2.05-1.57-2.89l.02-.06.06-.03c.43-.24.87.24,1.33.74.4.44.75.79,1.09.92.24-.38.4-.79.4-1.11,0-4.54-.36-7.67-.93-7.99-.08-.05-.15-.06-.23-.03-.43.14-.98,1.39-1.98,3.65l-.48,1.09-.14-.07c-.45-.24-.92-.54-1.01-.99-.06-.3.05-.61.34-.96l.06-.04c1.15-.49,1.27-1,1.42-1.64.06-.26.13-.55.27-.86l.03-.06,1.75-.56c-.1-.26-.09-.53-.07-.79.01-.27.03-.52-.09-.75-.03,0-.21.04-.36.07-.75.15-2.14.44-3.26-1.46-.2-.04-.24.02-.36.19-.2.3-.5.76-1.9.55-1.69-.25-2.11.25-2.59.83-.38.45-.81.97-1.9,1.06-.86.07-1.61-.18-2.22-.74-1.55-1.43-1.72-4.39-1.72-5.6,0-1.84.94-2.49,2.13-3.31.16-.11.33-.23.51-.35.35-.25.66-.64.99-1.05.6-.75,1.22-1.54,2.18-1.48.43.05.8.95,1.41,2.54.44,1.16.99,2.58,1.42,2.85,1.39-.54,1.78-2.71,2.09-4.46.28-1.54.49-2.76,1.28-2.8h.06s.04.04.04.04c.41.36.72.76,1,1.1.57.72,1.02,1.29,2.07,1.29.35,0,.93-.08,1.48-.16.57-.08,1.15-.16,1.52-.16.67,0,1.26.02,1.82.04.56.02,1.14.04,1.81.04,1.06,0,1.47-1.1,1.76-1.9.18-.49.3-.82.55-.86.61-.1,1.46-.1,2-.05h.13v.77c.75-.35,1.19-.66,1.09-1.28-.37-.15-.85-.28-1.31-.42-.29-.08-.57-.16-.81-.24l-.11-.04v-.12c.24-2.73,2.2-4.2,2.94-4.53.81-.37,1.6-.29,2.35-.21.61.06,1.23.13,1.88-.04,1.2-.3,2.29-.84,3.35-1.36,1.49-.74,2.92-1.44,4.45-1.38,3.47.11,3.85,1.57,4.33,3.41.22.85.47,1.82,1.07,2.81.24.39.28.95.12,1.46-.16.53-.52.94-1.02,1.17l-.04.02h-.04c-1.08-.16-1.7-.63-2.06-1.08.01.17.02.37.03.6v.1s-.08.04-.08.04c-.03.02-.86.46-.62,1.89.15.81.72,1.06,1.43,1.38.25.11.52.23.78.38l-.15.25c-.25-.14-.5-.26-.75-.36-.73-.33-1.43-.63-1.6-1.6-.24-1.4.45-1.99.69-2.16-.02-.66-.07-.99-.09-1.1,0-.05-.03-.18.1-.21l.12-.04.07.15c.19.45.73,1.24,2.12,1.45.4-.19.69-.54.82-.97.13-.43.1-.9-.1-1.22-.62-1.03-.87-2.02-1.1-2.89-.49-1.86-.81-3.08-4.06-3.19-1.46-.05-2.85.63-4.31,1.35-1.07.53-2.18,1.08-3.4,1.38-.7.18-1.36.11-1.99.05-.75-.08-1.46-.15-2.2.19-.95.43-2.51,1.94-2.74,4.17.2.07.44.13.68.2.5.14,1.01.29,1.41.46l.07.03.02.08c.2.95-.56,1.37-1.37,1.74v.75l-.02.03c-.28.48-.53.87-.8,1.28l-.27.42h-.06c-.26.09-.49.06-.69-.07-.38-.24-.49-.76-.49-.78v-.03s0-.03,0-.03c.24-.97,1.18-1.39,2.01-1.76h.03v-.64c-.52-.04-1.25-.04-1.79.05-.08.03-.22.4-.32.67-.31.84-.77,2.1-2.04,2.1-.68,0-1.26-.02-1.82-.04-.56-.02-1.14-.04-1.81-.04-.35,0-.93.08-1.48.16-.57.08-1.15.16-1.52.16-1.19,0-1.7-.65-2.3-1.4-.27-.34-.55-.69-.91-1.02-.51.1-.72,1.29-.95,2.55-.33,1.85-.74,4.15-2.34,4.7l-.05.02-.05-.02c-.56-.23-1.08-1.6-1.63-3.04-.38-.98-.89-2.32-1.15-2.35-.8-.04-1.34.64-1.92,1.37-.32.41-.66.83-1.05,1.11-.18.13-.35.24-.51.36-1.21.84-2,1.39-2,3.07,0,2.43.61,4.44,1.63,5.38.55.5,1.22.73,2,.66.98-.08,1.33-.51,1.7-.96.49-.59,1-1.21,2.87-.93,1.21.18,1.43-.15,1.61-.42.13-.2.28-.43.74-.3l.06.02.03.05c1.02,1.78,2.24,1.53,2.97,1.37.32-.06.57-.12.67.08.16.3.14.6.13.9-.01.28-.03.55.11.79l.09.16-.26.08c.9.65,1.03,5.41,1.03,8.21,0,.37-.16.78-.38,1.17.12,0,.24-.04.36-.12.24-.15.48-.28.71-.4.97-.53,1.51-.83.93-1.9-.44-.83-.88-3.7-.88-5.79,0-.53.2-.9.42-1.29.07-.14.15-.28.22-.43l.05-.11.11.02c.28.05.42.57.84,2.2.31,1.23.74,2.92,1.39,4.68.29.8-.05,1.51-.37,2.2-.24.52-.49,1.05-.49,1.63,0,.64.27,1.02.56,1.41.28.39.57.78.63,1.43l1.28.74c.49-.54.37-1,.23-1.51-.14-.52-.3-1.12.24-1.8l.06-.07,1.7.34-.06.29-1.52-.3c-.39.54-.27.99-.14,1.47.15.55.32,1.18-.38,1.88l-.08.08Z" fill="#fff"></path><path d="M82.69,58.34c-.12.05-.2.14-.25.26-.05.13-.05.25,0,.36.04.12.11.22.2.31.09.09.19.17.31.24.11.07.22.13.32.17h.01c-.1-.16-.16-.31-.17-.46-.01-.15.02-.32.08-.48.06-.15.15-.29.27-.4.12-.12.25-.21.4-.27.14-.05.29-.08.44-.07.15,0,.3.04.44.09.18.07.34.16.47.28.13.12.24.25.31.4.07.15.11.32.12.49,0,.17-.02.35-.09.54-.1.26-.24.46-.41.6s-.36.22-.57.26c-.21.04-.43.04-.66,0-.23-.04-.46-.1-.68-.19-.22-.08-.43-.19-.62-.32-.2-.13-.36-.29-.5-.46-.13-.18-.22-.37-.27-.59-.04-.22-.02-.45.08-.7.06-.15.13-.28.23-.4.09-.11.2-.2.32-.27.12-.07.25-.11.4-.13.14-.02.3,0,.46.03l-.26.68c-.13-.02-.25,0-.37.04M83.6,59.37c0,.08.03.16.08.23.04.07.1.13.17.18.07.05.15.1.23.13.08.03.16.05.25.05.09,0,.17,0,.25-.03.08-.02.15-.07.21-.12.06-.06.11-.13.15-.22.03-.09.04-.17.03-.25-.01-.08-.04-.15-.08-.22-.04-.07-.1-.13-.17-.18-.07-.05-.14-.09-.22-.12-.08-.03-.17-.05-.26-.06-.09,0-.17,0-.25.02-.08.02-.15.06-.21.11-.06.05-.11.12-.15.22-.04.09-.05.18-.04.27M81.1,62.55c-.14-.13-.25-.28-.33-.44-.08-.16-.11-.34-.11-.53,0-.19.05-.39.15-.59.07-.15.16-.29.28-.41.11-.12.24-.21.38-.27.14-.06.29-.1.46-.1.16,0,.32.04.49.11.17.08.31.18.4.29.1.11.17.24.22.37.05.13.09.28.12.43.02.15.05.3.07.45.02.15.05.3.09.45.04.15.09.3.17.43l.75-1.61.59.28-1.17,2.49c-.2-.09-.36-.2-.47-.33-.12-.12-.21-.26-.28-.41-.07-.15-.12-.31-.16-.49-.03-.18-.07-.36-.1-.55-.02-.1-.03-.2-.05-.31s-.04-.21-.07-.31c-.03-.1-.08-.19-.14-.28-.06-.08-.14-.15-.24-.2-.17-.08-.32-.09-.45-.04s-.24.15-.31.3c-.05.1-.06.2-.05.29.01.09.05.18.11.25s.13.15.21.21c.08.06.17.11.26.15l-.31.66c-.2-.08-.37-.19-.51-.32M79.75,65.14c-.18-.18-.31-.37-.38-.55-.07-.18-.09-.36-.07-.54.02-.18.08-.35.17-.51.09-.16.21-.3.34-.42.14-.11.3-.19.49-.23.19-.04.42-.03.67.03.25.06.54.18.86.35.33.18.58.37.77.55.18.19.31.37.38.56.07.18.09.36.07.54-.02.18-.08.35-.18.51-.09.16-.2.3-.34.41-.14.11-.3.19-.49.22-.19.04-.41.02-.67-.04-.26-.06-.55-.18-.87-.36-.32-.18-.57-.36-.75-.54M81.21,65.2c.14.07.27.12.42.16.14.04.28.04.4.02.13-.02.23-.1.3-.23.08-.14.09-.27.05-.39-.05-.12-.12-.23-.23-.34-.1-.1-.22-.19-.35-.27-.13-.08-.24-.15-.33-.2-.06-.03-.12-.07-.21-.11-.08-.04-.16-.08-.25-.12-.09-.04-.18-.07-.28-.09-.09-.02-.18-.04-.27-.03-.09,0-.17.03-.24.07-.08.04-.14.1-.19.2-.05.09-.07.18-.07.26,0,.08.03.16.08.24.04.07.1.15.17.21.07.07.14.13.22.19.08.06.16.11.24.15.08.05.15.09.2.12.09.05.21.11.34.18M78.09,67.36c-.12-.15-.2-.31-.25-.49-.05-.17-.05-.35-.02-.54.04-.19.12-.37.24-.56.1-.14.21-.26.35-.36.13-.1.27-.17.42-.2.15-.04.3-.05.46-.02.16.03.31.09.46.19.15.11.27.23.35.35.08.13.13.26.16.4.03.14.04.29.04.44,0,.15,0,.31-.01.46,0,.15,0,.31,0,.46.01.15.04.31.09.46l1.01-1.46.54.37-1.57,2.26c-.18-.12-.32-.26-.41-.4s-.17-.29-.21-.45c-.04-.16-.07-.33-.07-.51,0-.18,0-.37,0-.56,0-.1,0-.2,0-.32,0-.11,0-.22-.02-.32-.01-.1-.04-.2-.09-.3-.04-.09-.11-.17-.21-.24-.15-.1-.3-.14-.44-.11-.14.03-.26.11-.36.24-.06.09-.09.18-.1.27,0,.09.02.18.06.27.04.09.1.17.17.24.07.07.15.14.23.2l-.42.6c-.18-.12-.33-.25-.45-.4M76.27,68.23l.53.47-1.34,1.51.61.54,1.23-1.39.49.43-1.23,1.39.7.62,1.37-1.54.53.47-1.93,2.17-2.86-2.54,1.9-2.14ZM72.28,72.35l2.91.79h0s-1.75-1.88-1.75-1.88l.58-.54,2.61,2.8-.62.57-2.91-.79h0s1.74,1.88,1.74,1.88l-.58.54-2.6-2.8.61-.57ZM73.11,76.27c-.09.37-.33.71-.75,1.01-.42.3-.82.44-1.19.41-.38-.04-.72-.26-1.03-.68l-1.4-1.92.68-.49,1.4,1.92c.06.08.13.16.2.23.07.07.15.12.25.15.09.03.19.03.3.01.11-.02.24-.08.37-.18.24-.18.37-.35.38-.53.01-.18-.07-.38-.23-.61l-1.4-1.92.68-.5,1.4,1.92c.31.42.41.81.33,1.19M69.85,77.97c.06.14.08.29.08.45,0,.16-.06.32-.15.48-.1.16-.27.32-.51.47-.14.08-.28.15-.43.19-.15.04-.3.05-.45.04-.15-.02-.29-.07-.43-.16-.14-.09-.26-.22-.38-.4l-.17-.28.64-.4.09.14c.05.08.1.15.15.21.05.06.11.1.17.13.06.03.12.04.19.03.07,0,.15-.04.23-.09.09-.06.16-.12.19-.19.03-.07.04-.13.03-.2-.01-.07-.03-.13-.07-.2-.03-.07-.07-.13-.1-.18l-1.37-2.19.71-.44,1.39,2.22c.07.11.13.23.19.37M63.57,78.73l.23.83h.01c.05-.13.12-.25.21-.34.09-.09.2-.17.34-.23.17-.08.33-.12.49-.12.16,0,.31.03.44.09.14.06.26.15.38.27.11.12.21.26.28.42.08.17.12.35.13.53,0,.18-.03.36-.09.52-.06.16-.16.31-.28.44-.12.13-.27.23-.45.31-.17.08-.33.13-.5.15-.17.03-.34.02-.49-.01-.16-.04-.3-.11-.44-.21-.13-.1-.24-.24-.33-.42l.69-.32c.09.15.2.25.35.29.14.05.29.03.45-.04.09-.04.16-.1.22-.17s.1-.15.12-.23c.02-.08.03-.17.02-.26-.01-.09-.03-.18-.07-.26-.04-.09-.09-.16-.15-.23-.06-.07-.13-.12-.21-.15-.08-.03-.16-.05-.25-.05-.09,0-.18.02-.27.07-.12.06-.21.13-.27.2-.06.08-.1.18-.12.31l-.62.29-.54-2.03,1.9-.89.27.57-1.4.65ZM62.85,80.47l.23.61-1.51.57-.23-.61,1.51-.57ZM60.04,83.32l-.69-2.33-.9.27-.16-.55c.13-.03.25-.08.36-.14.11-.06.21-.13.28-.21s.14-.18.17-.29c.04-.11.05-.24.03-.38l.58-.17,1.07,3.59-.73.22ZM56.62,83.3l.16.81c.02.12.02.23,0,.34-.02.11-.07.21-.13.29-.06.09-.13.16-.22.23-.09.07-.19.12-.3.16l-.07-.38c.05-.02.1-.05.14-.09.04-.04.08-.09.1-.14.03-.05.04-.11.05-.16,0-.06,0-.12-.01-.17l-.38.07-.16-.81.83-.16ZM54.86,80.61l.08.7-2.01.23.09.81,1.84-.21.07.65-1.84.21.11.93,2.05-.24.08.7-2.88.33-.43-3.8,2.84-.32ZM49.17,81.03l1.63,2.54h.01l-.03-2.57h.79s.05,3.81.05,3.81h-.84s-1.62-2.53-1.62-2.53h-.01l.03,2.56h-.79s-.05-3.81-.05-3.81h.84ZM47.77,81l-.24,3.82-.84-.05.24-3.81.84.05ZM44.7,80.74l-.35,3.1,1.85.21-.08.7-2.69-.31.43-3.8.83.1ZM41.06,80.07l1.01,2.85h.01s.55-2.5.55-2.5l.77.17-.81,3.74-.82-.18-1.01-2.84h0s-.55,2.5-.55,2.5l-.77-.17.81-3.74.82.18ZM36.15,79.77c.16-.21.34-.37.55-.49.21-.12.44-.2.7-.22s.52,0,.8.1c.28.09.52.22.71.39.19.17.33.37.43.59.1.22.15.46.15.72,0,.26-.03.52-.12.8-.09.27-.21.5-.36.7-.15.2-.34.36-.55.48-.21.12-.44.19-.69.22-.25.02-.52,0-.8-.1-.28-.09-.51-.22-.7-.39-.19-.17-.34-.36-.43-.58-.1-.22-.15-.46-.16-.71,0-.26.03-.52.12-.78.09-.27.21-.51.37-.72M36.49,81.21c-.01.16,0,.3.04.45.04.14.11.27.22.38.1.11.24.19.42.25.18.06.34.07.49.04.15-.03.28-.09.4-.18.11-.09.21-.2.3-.33.08-.13.15-.28.2-.43.05-.16.08-.32.1-.48.01-.16,0-.31-.04-.46-.04-.14-.11-.27-.21-.38-.1-.11-.24-.2-.43-.25-.18-.06-.34-.07-.49-.04-.15.03-.28.09-.4.18-.12.09-.22.21-.3.34-.08.14-.15.29-.2.45-.05.15-.08.31-.09.46M33.35,77.85c-.03-.1-.09-.16-.17-.2-.08-.04-.17-.05-.26-.02-.09.03-.15.08-.2.17-.05.11-.07.22-.05.32.02.1.04.21.07.32.13-.01.24-.04.35-.07.1-.04.19-.12.25-.24.04-.09.05-.18.02-.28M31.97,79.03c-.07,0-.15.02-.21.05s-.13.06-.19.1c-.06.04-.1.1-.14.17-.03.06-.05.13-.05.19,0,.07.01.14.04.2.02.06.06.12.11.17.05.05.1.1.17.13.12.06.24.09.36.07.12,0,.24-.04.37-.09l-.23-1.01c-.07,0-.15,0-.22,0M31.97,80.75c-.19-.01-.38-.06-.57-.16-.15-.08-.29-.17-.4-.28-.11-.11-.2-.24-.25-.38-.05-.14-.08-.28-.07-.44,0-.15.05-.31.13-.48.06-.12.14-.22.23-.3.09-.08.19-.14.31-.19.11-.05.23-.08.35-.1.13-.02.25-.03.37-.03-.04-.16-.06-.31-.07-.45,0-.14.03-.29.1-.44.06-.12.14-.21.23-.29.1-.07.2-.12.32-.15.12-.03.24-.03.36-.02.12.02.24.05.36.11.13.06.24.14.34.23.1.09.17.19.22.3.05.11.08.23.07.36,0,.13-.04.26-.1.39-.1.2-.24.34-.43.42-.18.08-.39.12-.61.13l.17.76c.07-.05.13-.1.18-.16.05-.06.1-.12.15-.19l.59.29c-.09.15-.2.28-.33.39-.13.12-.27.21-.42.29l.29,1.16-.83-.42-.11-.48c-.2.07-.4.09-.59.08M29.74,75.08l-1,3.96-.72-.5.25-.86-1.18-.81-.73.53-.7-.48,3.37-2.32.71.49ZM28.44,77.03l.4-1.43h0s-1.21.86-1.21.86l.81.56ZM25.96,72.15l-.44,2.99h0s1.66-1.95,1.66-1.95l.6.51-2.47,2.92-.64-.54.44-2.98h0s-1.65,1.95-1.65,1.95l-.6-.51,2.47-2.92.64.54ZM21.53,73.15c-.18-.08-.33-.19-.46-.32-.2-.21-.34-.44-.43-.68-.09-.24-.12-.48-.1-.72.02-.24.09-.47.21-.7.12-.23.28-.43.48-.62.21-.2.43-.35.67-.45.24-.1.48-.16.72-.17.24,0,.48.04.72.14.23.1.45.26.65.47.13.14.24.3.32.48.08.18.13.36.15.54.02.19,0,.37-.06.56-.06.19-.16.36-.3.52l-.55-.59c.12-.18.17-.36.16-.54-.02-.18-.1-.34-.24-.49-.13-.14-.26-.23-.41-.28-.15-.05-.29-.06-.43-.04-.15.02-.29.08-.43.16-.14.08-.27.18-.39.29-.12.11-.22.23-.3.36-.09.13-.15.27-.18.41-.03.14-.03.29,0,.43.04.15.12.29.25.43.19.2.39.31.59.33.21.02.42-.06.63-.22l-.58-.62.46-.43,1.09,1.18-1.51,1.41-.37-.39.26-.36c-.24.02-.46,0-.63-.09M19.44,66.49c.25-.08.49-.11.73-.1.24.02.47.09.7.21.22.12.43.3.6.53.18.24.3.48.36.72.06.25.07.49.02.73-.05.24-.14.47-.28.68-.14.22-.33.41-.55.59-.22.17-.45.29-.7.37-.24.08-.49.11-.72.09-.24-.02-.47-.09-.69-.21-.22-.12-.42-.3-.6-.54-.18-.23-.3-.47-.36-.72-.06-.25-.07-.49-.03-.72.04-.24.14-.46.27-.68.14-.21.32-.41.54-.58.23-.17.46-.3.71-.38M18.91,67.87c-.1.12-.17.25-.22.39-.05.14-.06.28-.04.43.02.15.09.3.21.45.12.15.24.25.38.32.14.06.28.09.43.08.15,0,.29-.04.43-.11.14-.06.28-.14.41-.24.13-.1.25-.22.35-.34.1-.13.18-.26.22-.4.05-.14.06-.28.04-.43-.02-.15-.09-.3-.21-.45-.11-.15-.24-.26-.38-.32-.14-.06-.28-.09-.43-.08-.15.01-.29.05-.44.11-.15.07-.29.15-.42.25-.13.1-.24.21-.34.33M19.28,64.05l-2.64,1.65.99,1.58-.6.37-1.43-2.29,3.24-2.02.45.71ZM16.05,60.33c.26-.03.5-.02.74.05.24.06.45.17.65.34.2.16.36.38.49.64.13.27.2.52.21.78.01.25-.03.49-.12.72-.09.22-.23.43-.41.61-.18.19-.4.34-.65.47-.25.12-.5.2-.76.23-.25.03-.5.01-.73-.05-.23-.06-.44-.18-.64-.34-.19-.16-.36-.38-.49-.64-.13-.26-.2-.52-.21-.77-.01-.26.02-.49.11-.72.09-.22.22-.43.4-.61.18-.18.39-.34.64-.46.26-.13.51-.21.77-.24M15.26,61.58c-.12.1-.22.22-.29.34-.07.13-.11.27-.12.42,0,.15.03.31.11.48.09.17.19.3.31.38.12.09.26.14.4.16.15.02.29.01.45-.02.15-.03.3-.09.44-.16.15-.07.29-.16.41-.27.12-.1.22-.22.3-.35.07-.13.11-.27.12-.42,0-.15-.03-.31-.12-.48-.08-.17-.19-.3-.31-.38-.12-.09-.26-.14-.41-.16-.15-.02-.3,0-.46.03-.16.04-.31.09-.46.17-.14.07-.28.16-.39.26M13.52,59.34c.03.08.06.15.1.21.04.07.09.12.14.16.05.04.12.07.19.08.07.01.15,0,.25-.03.18-.07.3-.16.34-.3.04-.13.03-.28-.03-.45l-.3-.86-.99.35.3.85ZM16.53,58.34c.06.17.1.33.12.49.02.15.01.29-.02.42s-.1.24-.19.33c-.09.1-.23.17-.39.23-.18.06-.35.08-.5.04-.15-.04-.29-.13-.43-.26.01.24-.04.45-.16.62-.12.17-.29.29-.52.37-.18.06-.35.08-.51.06-.16-.02-.3-.08-.43-.17-.13-.09-.24-.2-.33-.34-.09-.14-.17-.29-.23-.45l-.62-1.75,3.6-1.27.6,1.7ZM15.03,58.75c.05.14.12.25.22.31.1.07.22.07.38.02.08-.03.15-.07.19-.12.04-.05.07-.1.08-.17.01-.06.01-.13,0-.2-.01-.07-.03-.14-.05-.21l-.26-.74-.84.3.28.8Z" fill="#fff"></path></g><g clip-path="url(#clippath-3)"><path d="M384.12,32.7c-4.15,0-6.66-2.45-6.66-5.67s2.4-5.62,6.55-5.62,6.66,2.35,6.66,5.56c0,3.38-2.4,5.73-6.55,5.73M384.45,39.9c8.29,0,14.57-5.4,14.57-13.2s-5.84-12.28-13.42-12.28c-3.77,0-6,1.2-7.91,2.46.55-5.02,2.95-8.84,7.69-8.84,3.27,0,5.29,1.15,7.8,3.05l4.42-6.49c-3.38-2.67-6.77-4.2-11.95-4.2-11.4,0-16.75,9.06-16.75,20.84,0,7.69,1.75,11.78,4.53,14.57,2.67,2.67,6.06,4.09,11.02,4.09" fill="#007dc5"></path></g></g></g></svg>